<svg width="18" height="18" fill="none" xmlns="http://www.w3.org/2000/svg"><path d="M14.402 15.999a.617.617 0 01-.376-.123L9 12.073l-5.033 3.803a.609.609 0 01-.878-.152.57.57 0 01-.09-.31V3.75c0-.464.19-.91.527-1.237A1.827 1.827 0 014.8 2h8.4c.477 0 .935.184 1.273.513.337.328.527.773.527 1.237v11.665a.569.569 0 01-.175.413.6.6 0 01-.423.17zm-5.4-5.25c.132 0 .26.044.366.123l4.433 3.35V3.75a.578.578 0 00-.177-.412.612.612 0 00-.424-.172H4.8a.612.612 0 00-.424.172.578.578 0 00-.177.412v10.473l4.426-3.351a.617.617 0 01.376-.123z" fill="#3585F5"/></svg>