<svg width="16" height="18" fill="none" xmlns="http://www.w3.org/2000/svg"><path d="M14.996 0H.751A.748.748 0 000 .751v2.498A.748.748 0 00.75 4h14.246a.748.748 0 00.754-.75V.75a.747.747 0 00-.754-.75zm-.748 2.501H1.5V1.499h12.75v1.002zM14.996 7H.751A.748.748 0 000 7.751v2.498A.748.748 0 00.75 11h14.246a.746.746 0 00.754-.75v-2.5a.747.747 0 00-.754-.75zm-.748 2.501H1.5V8.499h12.75v1.002zM14.996 14H.751a.748.748 0 00-.751.751v2.498A.748.748 0 00.75 18h14.246a.746.746 0 00.754-.75v-2.5a.748.748 0 00-.754-.751zm-.748 2.501H1.5v-1.002h12.75v1.002z" fill="#111"/></svg>