<svg width="16" height="16" fill="none" xmlns="http://www.w3.org/2000/svg"><g clip-path="url(#clip0_975_379)" stroke="#111" stroke-width="1.5" stroke-linecap="round" stroke-linejoin="round"><path d="M13.333 2H2.666a2 2 0 00-2 2v9.333a2 2 0 002 2h10.667a2 2 0 002-2V4a2 2 0 00-2-2zM.666 6h14.667M8 3.334V.667M4 3.334V.667m8 2.667V.667M3.332 9.334h1.333m2.667 0h1.333m2.667 0h1.333M3.332 12h1.333m2.667 0h1.333m2.667 0h1.333"/></g><defs><clipPath id="clip0_975_379"><path fill="#fff" d="M0 0h16v16H0z"/></clipPath></defs></svg>