<svg width="18" height="18" fill="none" xmlns="http://www.w3.org/2000/svg"><path d="M5.12 15.998a3.1 3.1 0 01-2.206-.914A3.1 3.1 0 012 12.878c0-.834.324-1.617.914-2.206L6.09 7.495a3.124 3.124 0 014.413 0 .778.778 0 11-1.1 1.1 1.567 1.567 0 00-2.213 0L4.014 11.77a1.567 1.567 0 001.106 2.672c.418 0 .811-.163 1.107-.459L7.8 12.411a.778.778 0 011.1 1.1l-1.574 1.573a3.1 3.1 0 01-2.207.914z" fill="#3585F5"/><path d="M9.703 11.416a3.1 3.1 0 01-2.207-.914.778.778 0 111.1-1.1c.296.295.689.458 1.107.458.418 0 .81-.163 1.106-.458l3.177-3.177c.295-.295.458-.688.458-1.106a1.567 1.567 0 00-2.671-1.106l-1.574 1.573a.778.778 0 01-1.1-1.1l1.574-1.574a3.124 3.124 0 014.413 0A3.1 3.1 0 0116 5.12a3.1 3.1 0 01-.914 2.207l-3.177 3.176a3.1 3.1 0 01-2.206.914z" fill="#3585F5"/></svg>