<svg width="60" height="40" fill="none" xmlns="http://www.w3.org/2000/svg"><rect width="60" height="40" rx="8" fill="#F1F1F1"/><path d="M36.75 13h-13.5A2.25 2.25 0 0021 15.25v9a2.04 2.04 0 00.135.742c.178.505.528.93.99 1.201.342.198.73.304 1.125.307h13.5a2.273 2.273 0 001.89-1.027A2.3 2.3 0 0039 24.25v-9A2.25 2.25 0 0036.75 13zm-6.469 12H23.25a.66.66 0 01-.233-.044l4.072-5.558 3.338 3.336 1.058 1.057 1.201 1.21h-2.405zm7.22-.75a.754.754 0 01-.751.75h-1.935l-2.25-2.266 1.918-1.896 3.032 3.375-.014.037zm0-2.287l-2.438-2.716a.763.763 0 00-.83-.198.713.713 0 00-.25.17l-2.481 2.457-3.968-3.96a.798.798 0 00-.594-.216.776.776 0 00-.548.307l-3.893 5.318V15.25a.754.754 0 01.751-.75h13.5a.754.754 0 01.751.75v6.713z" fill="#AAA"/><path d="M31.5 19.75a1.5 1.5 0 10-.001-2.998 1.5 1.5 0 000 2.998z" fill="#AAA"/></svg>