<svg xmlns="http://www.w3.org/2000/svg" width="25" height="24" fill="none"><path fill-rule="evenodd" clip-rule="evenodd" d="M13 3.938c-2.792 0-5.063 2.29-5.063 5.115 0 .957.422 2.144 1.035 3.329 1.351 2.607 3.601 5.234 3.601 5.234a.562.562 0 00.854 0s2.25-2.627 3.6-5.234c.614-1.184 1.035-2.372 1.035-3.329 0-2.825-2.27-5.116-5.062-5.116zm0 1.124c2.175 0 3.938 1.79 3.938 3.991 0 1.1-.698 2.532-1.503 3.868-.865 1.433-1.876 2.748-2.435 3.444-.56-.696-1.57-2.011-2.434-3.444-.806-1.336-1.504-2.768-1.504-3.868 0-2.2 1.763-3.99 3.938-3.99z" fill="#111"/><path fill-rule="evenodd" clip-rule="evenodd" d="M13 6.938a2.063 2.063 0 10.002 4.126A2.063 2.063 0 0013 6.937zm0 1.125a.938.938 0 110 1.875.938.938 0 010-1.876zm3.588 7.97c.61.183 1.112.41 1.46.675.225.17.39.338.39.542 0 .12-.069.229-.165.337-.159.18-.395.341-.688.491-1.033.529-2.704.86-4.585.86-1.881 0-3.552-.331-4.585-.86-.293-.15-.53-.311-.688-.49-.096-.11-.165-.218-.165-.338 0-.204.165-.371.39-.542.348-.266.85-.492 1.46-.675a.563.563 0 00-.324-1.078c-.928.28-1.65.663-2.083 1.087-.381.371-.567.786-.567 1.208 0 .526.297 1.052.902 1.49 1.063.768 3.196 1.323 5.66 1.323s4.598-.555 5.66-1.323c.605-.438.902-.963.902-1.49 0-.422-.186-.837-.567-1.208-.433-.424-1.155-.807-2.083-1.087a.563.563 0 00-.324 1.078z" fill="#111"/></svg>