<svg width="16" height="16" fill="none" xmlns="http://www.w3.org/2000/svg"><g clip-path="url(#clip0_588_1151)" fill="#111"><path d="M8 14.73a6.73 6.73 0 11.001-13.46 6.73 6.73 0 010 13.46zm0 .962A7.692 7.692 0 108 .308a7.692 7.692 0 000 15.384z"/><path d="M8.896 6.643l-2.203.276-.079.366.434.079c.282.067.338.169.276.45l-.71 3.336c-.186.862.101 1.267.778 1.267.523 0 1.132-.242 1.408-.574l.085-.4a1.067 1.067 0 01-.66.236c-.264 0-.36-.186-.293-.512l.964-4.524zm.066-2.009a.962.962 0 11-1.923 0 .962.962 0 011.923 0z"/><path d="M8.895 6.643l.15.032.046-.212-.215.027.02.153zm-2.203.276l-.019-.153-.108.014-.023.106.15.033zm-.078.366l-.15-.032-.034.155.156.028.028-.151zm.433.079l.036-.15H7.08l-.004-.002-.028.152zm.276.45l-.15-.033v.002l.15.032zm-.71 3.336l.151.032-.15-.032zm2.187.693l.118.098.024-.03.008-.036-.15-.032zm.084-.4l.15.032.097-.455-.349.308.102.115zm-.952-.276l-.15-.032.15.032zM14.577 8A6.577 6.577 0 018 14.577v.308A6.885 6.885 0 0014.885 8h-.308zM8 1.424A6.577 6.577 0 0114.577 8h.308A6.885 6.885 0 008 1.116v.308zM1.424 8A6.577 6.577 0 018 1.424v-.308A6.885 6.885 0 001.116 8h.308zM8 14.577A6.577 6.577 0 011.424 8h-.308A6.885 6.885 0 008 14.885v-.308zM15.54 8A7.538 7.538 0 018 15.54v.308A7.846 7.846 0 0015.847 8h-.308zM8 .462A7.538 7.538 0 0115.54 8h.308A7.846 7.846 0 008 .154v.308zM.462 8A7.538 7.538 0 018 .462V.154A7.846 7.846 0 00.154 8h.308zM8 15.54A7.538 7.538 0 01.462 8H.154A7.846 7.846 0 008 15.847v-.308zm.876-9.049l-2.203.276.039.305 2.202-.276-.038-.305zm-2.334.396l-.079.367.301.064.079-.366-.301-.065zm.044.55l.434.08.055-.304-.434-.078-.055.302zm.425.077c.137.033.165.064.172.075.007.013.02.055-.01.193l.3.067c.032-.143.048-.294-.027-.418-.076-.127-.218-.181-.363-.216l-.072.3zm.162.27l-.71 3.335.301.064.71-3.335-.301-.064zm-.71 3.334c-.096.445-.08.812.086 1.072.172.271.475.382.842.382v-.307c-.31 0-.488-.092-.582-.24-.1-.157-.135-.424-.045-.842l-.3-.065zm.928 1.454c.284 0 .587-.065.855-.174.267-.107.512-.264.672-.456l-.237-.197c-.116.14-.313.272-.55.368-.237.096-.5.152-.74.152v.307zm1.56-.696l.084-.4-.301-.064-.085.4.301.064zm-.169-.547a.913.913 0 01-.557.198v.307c.212 0 .534-.074.76-.275l-.203-.23zm-.557.198c-.094 0-.123-.03-.137-.055-.022-.04-.036-.123-.005-.273l-.302-.062c-.036.176-.037.35.038.485.084.149.235.212.406.212v-.307zm-.143-.327l.964-4.524-.301-.064-.964 4.524.301.064zm.726-6.564A.808.808 0 018 5.443v.307c.616 0 1.116-.499 1.116-1.115h-.308zM8 5.443a.808.808 0 01-.807-.808h-.308c0 .616.5 1.115 1.115 1.115v-.307zm-.807-.808c0-.446.361-.808.807-.808V3.52c-.616 0-1.115.5-1.115 1.115h.308zM8 3.827c.447 0 .808.362.808.808h.308c0-.616-.5-1.115-1.116-1.115v.307z"/></g><defs><clipPath id="clip0_588_1151"><path fill="#fff" d="M0 0h16v16H0z"/></clipPath></defs></svg>