<svg width="18" height="18" fill="none" xmlns="http://www.w3.org/2000/svg"><path fill-rule="evenodd" clip-rule="evenodd" d="M9 6.2a2.1 2.1 0 01-1.98-1.4H2.7a.7.7 0 110-1.4h4.32a2.1 2.1 0 013.96 0h4.32a.7.7 0 110 1.4h-4.32A2.1 2.1 0 019 6.2zm0-1.4a.7.7 0 100-1.4.7.7 0 000 1.4zm-4.9 6.3a2.1 2.1 0 111.98-2.8h9.22a.7.7 0 110 1.4H6.08a2.1 2.1 0 01-1.98 1.4zm0-1.4a.7.7 0 100-1.4.7.7 0 000 1.4zm9.8 6.3a2.1 2.1 0 01-1.984-1.41.613.613 0 01-.116.01H2.7a.7.7 0 110-1.4h9.1c.04 0 .078.003.116.01A2.1 2.1 0 1113.9 16zm0-1.4a.7.7 0 100-1.4.7.7 0 000 1.4z" fill="#3585F5"/></svg>