<svg width="24" height="24" fill="none" xmlns="http://www.w3.org/2000/svg"><path d="M2.578 8.834l4.426-4.41v.007l.854-.855a.25.25 0 01.355 0l5.213 5.263.01.01.01.01a.25.25 0 01.06.082l.455-.21-.454.21a.25.25 0 01-.051.283.251.251 0 01-.364-.011l-.01-.01-.009-.01L9.105 5.18l-.855-.865V20.28a.251.251 0 11-.5 0V4.386l-.852.85L2.932 9.19a.25.25 0 01-.354-.355zm9 6.381l4.426 4.41v-.008l.854.856a.25.25 0 00.273.054.25.25 0 00.081-.054h.001l5.213-5.264.01-.01.01-.01a.252.252 0 00.06-.082l.455.21-.454-.21a.25.25 0 00-.051-.283.25.25 0 00-.364.011l-.01.01-.009.01-3.968 4.013-.855.866V3.768a.253.253 0 00-.15-.245.25.25 0 00-.35.245v15.894l-.852-.85-3.966-3.952a.25.25 0 00-.354.355z" fill="#111" stroke="#111"/><path fill="#111" stroke="#111" stroke-width=".5" d="M1.25 23.25h1.5v.5h-1.5zm4 0h1.5v.5h-1.5zm4 0h1.5v.5h-1.5zm4 0h1.5v.5h-1.5zm4 0h1.5v.5h-1.5zm4 0h1.5v.5h-1.5z"/></svg>