<svg width="20" height="20" fill="none" xmlns="http://www.w3.org/2000/svg"><g clip-path="url(#clip0_1832_735)"><path d="M10 20c5.523 0 10-4.477 10-10S15.523 0 10 0 0 4.477 0 10s4.477 10 10 10z" fill="#25D366"/><path fill-rule="evenodd" clip-rule="evenodd" d="M10.33 15.563h-.002c-.995 0-1.973-.25-2.842-.723l-3.152.826.844-3.08a5.936 5.936 0 01-.794-2.974 5.955 5.955 0 015.946-5.946c1.59.001 3.084.62 4.207 1.744a5.91 5.91 0 011.74 4.207 5.955 5.955 0 01-5.947 5.946zm-2.698-1.8l.18.107c.76.45 1.63.689 2.516.69h.002a4.95 4.95 0 004.943-4.943c0-1.32-.514-2.563-1.447-3.497a4.909 4.909 0 00-3.494-1.45 4.95 4.95 0 00-4.944 4.943c0 .934.26 1.843.755 2.63l.118.187-.5 1.824 1.871-.49zm5.49-2.866c.104.05.174.084.204.134.037.062.037.36-.087.707-.123.347-.717.664-1.003.706-.256.038-.58.054-.935-.059a8.543 8.543 0 01-.847-.313c-1.393-.601-2.335-1.951-2.513-2.206a1.714 1.714 0 00-.026-.037v-.002c-.08-.105-.606-.808-.606-1.535a1.645 1.645 0 01.52-1.24.546.546 0 01.396-.186 5.927 5.927 0 01.318.006c.087 0 .195-.001.301.255l.164.398c.128.311.27.655.294.705.037.074.062.161.013.26l-.021.043c-.038.075-.065.131-.128.205a6.13 6.13 0 00-.076.092c-.051.062-.102.124-.147.168-.074.074-.152.155-.065.304.087.148.385.635.826 1.029.475.423.888.602 1.097.693.041.018.074.032.098.044.149.075.236.062.322-.037a8.38 8.38 0 00.47-.582c.1-.15.199-.124.335-.075.136.05.867.41 1.015.484l.082.04z" fill="#FDFDFD"/></g><defs><clipPath id="clip0_1832_735"><path fill="#fff" d="M0 0h20v20H0z"/></clipPath></defs></svg>