<svg width="20" height="20" fill="none" xmlns="http://www.w3.org/2000/svg"><path d="M9.998 19.848c5.446 0 9.86-4.414 9.86-9.86 0-5.445-4.414-9.86-9.86-9.86-5.445 0-9.86 4.415-9.86 9.86 0 5.446 4.415 9.86 9.86 9.86z" fill="url(#paint0_linear_2714_1214)"/><path d="M13.49 7.319a.766.766 0 100-1.532.766.766 0 000 1.532zm-3.405-.549a3.221 3.221 0 00-3.218 3.217 3.221 3.221 0 003.218 3.218 3.221 3.221 0 003.217-3.218 3.221 3.221 0 00-3.217-3.217zm0 5.278a2.063 2.063 0 01-2.061-2.06c0-1.137.924-2.062 2.06-2.062 1.137 0 2.062.925 2.062 2.061a2.063 2.063 0 01-2.061 2.061z" fill="#fff"/><path d="M12.639 16.52H7.423a3.929 3.929 0 01-3.925-3.924V7.38a3.929 3.929 0 013.925-3.925h5.216a3.929 3.929 0 013.925 3.925v5.216a3.93 3.93 0 01-3.925 3.924zM7.423 4.684A2.698 2.698 0 004.727 7.38v5.216a2.698 2.698 0 002.696 2.695h5.216a2.698 2.698 0 002.695-2.695V7.38a2.698 2.698 0 00-2.695-2.696H7.423z" fill="#fff"/><defs><linearGradient id="paint0_linear_2714_1214" x1="1.591" y1="18.396" x2="22.899" y2="-2.912" gradientUnits="userSpaceOnUse"><stop offset=".001" stop-color="#FBE18A"/><stop offset=".209" stop-color="#FCBB45"/><stop offset=".377" stop-color="#F75274"/><stop offset=".524" stop-color="#D53692"/><stop offset=".739" stop-color="#8F39CE"/><stop offset="1" stop-color="#5B4FE9"/></linearGradient></defs></svg>