<svg width="20" height="20" fill="none" xmlns="http://www.w3.org/2000/svg"><g clip-path="url(#clip0_2714_1198)"><path fill-rule="evenodd" clip-rule="evenodd" d="M10 20c5.523 0 10-4.477 10-10S15.523 0 10 0 0 4.477 0 10s4.477 10 10 10zm1.099-14.997c-.311 0-.623 0-.935.005-.008 1.075-.008 2.15-.007 3.225a724.317 724.317 0 01-.002 2.41c0 .543.001 1.085-.028 1.628-.005.15-.08.283-.154.412l-.017.03a1.405 1.405 0 01-1.154.671c-.702.062-1.36-.512-1.459-1.196 0-.034-.002-.067-.003-.101-.007-.193-.014-.39.06-.57.104-.296.305-.558.568-.729.362-.25.845-.288 1.258-.154 0-.264.005-.527.01-.79.005-.354.011-.708.006-1.061-.905-.17-1.871.117-2.561.718a3.124 3.124 0 00-1.076 2.067c-.009.203-.005.411.005.62.086.975.678 1.883 1.52 2.38.508.3 1.103.462 1.699.428a3.102 3.102 0 002.463-1.337c.338-.48.53-1.06.563-1.642.009-.8.008-1.602.008-2.405V8.371c.216.141.438.28.675.387.546.26 1.15.384 1.75.404V7.484c-.64-.072-1.3-.283-1.766-.745-.467-.451-.696-1.101-.73-1.739-.23.002-.461.002-.693.003z" fill="#000"/></g><defs><clipPath id="clip0_2714_1198"><path fill="#fff" d="M0 0h20v20H0z"/></clipPath></defs></svg>