<svg width="20" height="20" fill="none" xmlns="http://www.w3.org/2000/svg"><g clip-path="url(#clip0_1832_740)"><path d="M10 0c5.523 0 10 4.477 10 10s-4.477 10-10 10S0 15.523 0 10 4.477 0 10 0z" fill="#7F4DA0"/><path d="M12.664 8.732c-.048-.395-.17-.705-.386-.98-.28-.354-.638-.566-1.167-.691-.346-.084-.485-.074-.61.04-.116.107-.14.32-.05.46.062.1.134.136.335.176.267.049.452.113.62.209.356.206.522.528.54 1.049.008.245.03.32.115.407.158.159.44.128.56-.062.044-.072.05-.103.055-.27a2.629 2.629 0 00-.012-.338z" fill="#fff"/><path d="M14.06 9.178c-.07-1.21-.544-2.185-1.392-2.87a3.92 3.92 0 00-1.687-.778c-.231-.046-.658-.084-.731-.062a.45.45 0 00-.21.162.442.442 0 00-.018.332c.064.158.182.214.512.243.51.044 1.034.223 1.431.488.453.302.813.714 1.046 1.199.202.416.325 1.016.322 1.554-.001.194.029.304.107.384a.36.36 0 00.442.069c.168-.089.207-.244.178-.721zm1.544 4.662a1.323 1.323 0 00-.118-.237c-.249-.376-1.585-1.421-2.252-1.763-.381-.196-.663-.26-.872-.2-.225.064-.344.168-.72.637a3.499 3.499 0 01-.35.391.92.92 0 01-.446.129c-.33-.002-.928-.216-1.388-.497-.357-.217-.815-.606-1.166-.992-.414-.452-.697-.852-.92-1.302-.288-.58-.36-.933-.24-1.192a.962.962 0 01.086-.156c.018-.02.204-.172.409-.338.403-.32.468-.394.543-.613a1.06 1.06 0 00-.077-.85 11.84 11.84 0 00-.62-.998c-.282-.403-.985-1.265-1.125-1.382-.253-.205-.576-.241-.934-.103-.376.147-1.083.716-1.385 1.113-.272.36-.377.615-.393.95-.014.278.01.392.156.746 1.143 2.775 2.848 4.991 5.19 6.75 1.224.92 2.493 1.619 3.81 2.097.768.28 1.101.293 1.494.064.166-.1.576-.52.805-.827.379-.51.52-.745.559-.933a1.072 1.072 0 00-.046-.494z" fill="#fff"/><path d="M15.482 9.456a5.514 5.514 0 00-.381-1.873c-.238-.616-.478-1.018-.932-1.561-.428-.51-.762-.801-1.29-1.125-.737-.452-1.634-.75-2.64-.876-.342-.044-.42-.04-.525.03-.204.133-.201.464.003.595.068.042.128.057.402.093.421.056.692.11 1.013.198 1.26.344 2.228 1.048 2.876 2.092.542.871.767 1.742.735 2.854-.011.377-.003.443.054.533.11.168.4.202.55.062.092-.085.11-.15.128-.471.009-.168.01-.416.007-.551z" fill="#fff"/></g><defs><clipPath id="clip0_1832_740"><path fill="#fff" d="M0 0h20v20H0z"/></clipPath></defs></svg>