<svg width="20" height="20" fill="none" xmlns="http://www.w3.org/2000/svg"><g clip-path="url(#clip0_2714_1192)"><path d="M16.937 16.927c3.832-3.832 3.832-10.045 0-13.877C13.105-.782 6.892-.782 3.06 3.05c-3.832 3.832-3.832 10.045 0 13.877 3.832 3.832 10.045 3.832 13.877 0z" fill="red"/><path d="M16.208 8.415a2.663 2.663 0 00-2.663-2.663H6.638a2.663 2.663 0 00-2.663 2.663v3.237a2.663 2.663 0 002.663 2.663h6.907a2.663 2.663 0 002.663-2.663V8.415zm-4.358 1.782l-2.755 1.51c-.12.065-.227-.022-.227-.158v-3.1c0-.139.11-.225.23-.157l2.774 1.59c.123.07.102.248-.022.315z" fill="#fff"/></g><defs><clipPath id="clip0_2714_1192"><path fill="#fff" d="M0 0h20v20H0z"/></clipPath></defs></svg>