<svg width="34" height="34" fill="none" xmlns="http://www.w3.org/2000/svg"><path d="M25.33 2.407l-3.925 1.318.998.88c-2.228 2.259-5 3.8-8.051 4.47l-2.386.524a.741.741 0 10.319 1.448l2.385-.524c3.36-.738 6.406-2.44 8.846-4.936l.995.877.819-4.057zm.297 6.231h-1.708a.836.836 0 00-.836.836v9.935c.034.036.065.075.095.115l.004-.002 3.281-2.8V9.474a.836.836 0 00-.836-.836zm-4.855 10.324v-6.225a.836.836 0 00-.836-.836h-1.708a.836.836 0 00-.836.836v6.225h3.38zm-5.692-.191v-4.255a.836.836 0 00-.837-.836h-1.708a.836.836 0 00-.836.836v4.467c1.049-.319 2.174-.393 3.38-.212zM9.713 32.218l-6.385-5.833a.72.72 0 01-.046-1.018l2.089-2.286a.72.72 0 011.018-.046l6.384 5.833a.72.72 0 01.046 1.018l-2.088 2.286a.72.72 0 01-1.018.046z" fill="#fff"/><path d="M30.217 16.547a1.49 1.49 0 00-1.98.14l-4.154 3.543c.177.522.268 1.03.268 1.329a1.95 1.95 0 01-1.911 1.947l-6.101.908a.463.463 0 11-.136-.917l6.2-.918c.563 0 1.02-.458 1.02-1.02 0-.366-.137-.866-.32-1.304a1.454 1.454 0 00-.7-.18h-6.266c-3.306-.841-6.05.093-8.335 2.477l5.491 5.016 1.06-.712a2.898 2.898 0 011.183-.268h5.274a5.903 5.903 0 004.427-1.999l5.185-5.88a1.49 1.49 0 00-.205-2.162z" fill="#fff"/></svg>