<svg xmlns="http://www.w3.org/2000/svg" width="34" height="34" fill="none"><path d="M6.683 19.21H4.111v2.573h2.572V19.21zm4.543 0H8.654v2.573h2.572V19.21zm-4.543 4.64H4.111v2.571h2.572V23.85zm4.543 0H8.654v2.571h2.572V23.85zm1.248-13.668H9.902v2.571h2.572v-2.571zm4.545 0h-2.572v2.571h2.572v-2.571z" fill="#fff"/><path d="M14.494 14.212H7.938v-5.49l11.027-4.19v7.238h-.044v14.407a2.64 2.64 0 01.381-.233c.388-.192.887-.408 1.414-.62V11.768l-.004-9.771L6.19 7.518v6.11H.262v18.373h17.265v-.02c0-.058.014-.81.071-1.728h-3.104v-16.04zM13.33 30.253H2.01V15.376h11.32v14.877zm20.117-2.133a1.544 1.544 0 00-.83-1.119C31.171 26.281 28 25.217 28 25.217h-.268l-.868 1.157.814 5.628h6.06a33.56 33.56 0 00-.292-3.882zm-4.417-6.252l.437-2.25a3.012 3.012 0 00-2.985-3.419h-.519a3.014 3.014 0 00-2.984 3.419l.436 2.25a2.86 2.86 0 005.615 0z" fill="#fff"/><path d="M24.445 25.217S21.274 26.28 19.829 27a1.542 1.542 0 00-.83 1.12 33.56 33.56 0 00-.292 3.88h6.06l.813-5.627-.867-1.157h-.268z" fill="#fff"/></svg>