<svg width="20" height="20" fill="none" xmlns="http://www.w3.org/2000/svg"><path d="M5.012 18.998a3.985 3.985 0 01-2.837-1.175A3.985 3.985 0 011 14.986c0-1.072.417-2.08 1.175-2.837l4.084-4.084a4.016 4.016 0 015.673 0 1 1 0 11-1.414 1.414 2.015 2.015 0 00-2.845 0L3.59 13.563a2.014 2.014 0 000 2.845c.38.38.886.59 1.423.59s1.043-.21 1.423-.59l2.023-2.023A1 1 0 019.872 15.8L7.85 17.823a3.986 3.986 0 01-2.837 1.175z" fill="#fff"/><path d="M10.904 13.106a3.986 3.986 0 01-2.837-1.175 1 1 0 111.415-1.414c.38.38.885.589 1.422.589.537 0 1.043-.21 1.422-.59l4.085-4.083c.38-.38.589-.885.589-1.423a2.014 2.014 0 00-3.435-1.423l-2.023 2.024a1 1 0 01-1.414-1.414l2.024-2.024a4.016 4.016 0 015.673 0A3.986 3.986 0 0119 5.01c0 1.072-.417 2.08-1.175 2.837l-4.084 4.084a3.985 3.985 0 01-2.837 1.175z" fill="#fff"/></svg>