<svg width="40" height="40" fill="none" xmlns="http://www.w3.org/2000/svg"><rect width="40" height="40" rx="8" fill="#04254E"/><path d="M19.818 22.69a5.992 5.992 0 01-5.985-5.986c0-3.3 2.685-5.985 5.985-5.985 3.3 0 5.985 2.685 5.985 5.985 0 3.3-2.685 5.985-5.985 5.985z" fill="#fff"/><path d="M19.818 5C11.648 5 5 11.648 5 19.818c0 8.171 6.648 14.819 14.818 14.819 8.171 0 14.819-6.648 14.819-14.819C34.637 11.648 27.989 5 19.818 5zm9.82 23.082a11.951 11.951 0 00-4.662-4.06 2.73 2.73 0 00-2.387.015 6.347 6.347 0 01-2.77.629c-.97 0-1.903-.212-2.772-.63a2.733 2.733 0 00-2.386-.015 11.955 11.955 0 00-4.663 4.061 12.784 12.784 0 01-3.022-8.264c0-7.081 5.76-12.842 12.842-12.842 7.082 0 12.843 5.76 12.843 12.842 0 3.146-1.138 6.03-3.023 8.264z" fill="#fff"/></svg>