<svg width="34" height="34" fill="none" xmlns="http://www.w3.org/2000/svg"><path d="M32.18 13.756L24.873 7.27a.666.666 0 00-.884 0L21.71 9.292l-3.861-3.427a.667.667 0 00-.885 0L13.1 9.292l-2.278-2.021a.667.667 0 00-.885 0l-7.309 6.485a.667.667 0 00.443 1.165h1.21v9.223c0 .368.298.667.666.667h5.048v1.877c0 .368.299.667.667.667h13.485a.667.667 0 00.666-.667v-1.877h5.049a.667.667 0 00.666-.667v-9.222h1.21a.667.667 0 00.442-1.166zM5.616 23.477v-9.222a.667.667 0 00-.667-.667h-.12L10.38 8.66l1.716 1.524-4.205 3.731a.667.667 0 00.442 1.166h1.662v8.396h-4.38zm17.866 2.544H11.33V14.414a.667.667 0 00-.667-.667h-.573l7.315-6.492 7.316 6.492h-.574a.667.667 0 00-.666.667V26.02zm6.381-12.433a.667.667 0 00-.666.667v9.222h-4.382v-8.396h1.662a.667.667 0 00.443-1.166l-4.205-3.731L24.43 8.66l5.553 4.928h-.12z" fill="#fff" stroke="#fff"/></svg>