<svg width="27" height="19" fill="none" xmlns="http://www.w3.org/2000/svg"><path d="M.44 1.368c.368-.064.76-.12 1.176-.168.432-.064.856-.112 1.272-.144.432-.032.848-.056 1.248-.072.4-.016.768-.024 1.104-.024.784 0 1.552.072 2.304.216a6.188 6.188 0 012.04.744c.608.352 1.088.84 1.44 1.464.368.608.552 1.376.552 2.304 0 1.376-.32 2.496-.96 3.36-.64.864-1.496 1.464-2.568 1.8l1.176.744L13.064 18H9.272l-3.816-6.576-1.728-.312V18H.44V1.368zm5.04 2.52c-.336 0-.672.008-1.008.024-.32.016-.568.048-.744.096V8.88H5.12c.912 0 1.64-.208 2.184-.624.544-.416.816-1.104.816-2.064 0-.72-.224-1.28-.672-1.68C7 4.096 6.344 3.888 5.48 3.888zm20.701 1.224c0 .416-.056.832-.168 1.248-.096.416-.264.8-.504 1.152-.24.336-.552.64-.936.912-.384.256-.848.448-1.392.576v.144c.48.08.936.216 1.368.408a3.51 3.51 0 011.128.792c.32.336.569.744.745 1.224.191.48.287 1.048.287 1.704 0 .864-.183 1.616-.552 2.256a4.55 4.55 0 01-1.488 1.536c-.608.4-1.303.696-2.088.888-.784.192-1.591.288-2.424.288h-1.055c-.416 0-.872-.016-1.369-.048-.48-.016-.976-.048-1.488-.096a10.67 10.67 0 01-1.368-.216V1.32a26.608 26.608 0 012.304-.264c.448-.032.904-.056 1.368-.072.48-.016.953-.024 1.416-.024.785 0 1.544.064 2.28.192.752.112 1.416.32 1.992.624a3.627 3.627 0 011.417 1.272c.352.544.527 1.232.527 2.064zm-6 10.416c.4 0 .784-.048 1.152-.144a3.2 3.2 0 001.009-.432c.288-.208.52-.464.696-.768.175-.304.264-.664.264-1.08 0-.528-.104-.944-.313-1.248a2.027 2.027 0 00-.816-.696 3.199 3.199 0 00-1.127-.336 10.879 10.879 0 00-1.248-.072h-1.752v4.632c.08.032.207.056.384.072l.552.048c.207 0 .416.008.623.024h.576zm-1.08-7.272c.225 0 .48-.008.768-.024a6.84 6.84 0 00.744-.072 4.23 4.23 0 001.56-.864c.449-.384.673-.888.673-1.512 0-.416-.08-.76-.24-1.032a1.797 1.797 0 00-.649-.648 2.564 2.564 0 00-.887-.336 5.635 5.635 0 00-1.056-.096c-.416 0-.8.008-1.152.024-.352.016-.624.04-.816.072v4.488h1.056z" fill="#fff"/></svg>