<svg xmlns="http://www.w3.org/2000/svg" width="19" height="18" fill="none"><path d="M15.75 0H2.25A2.25 2.25 0 000 2.25v15a.754.754 0 00.436.683.751.751 0 00.802-.113l4.407-3.777A2.25 2.25 0 017.11 13.5h8.64A2.25 2.25 0 0018 11.25v-9A2.25 2.25 0 0015.75 0zm.75 11.25a.754.754 0 01-.75.75H7.11a3.762 3.762 0 00-2.441.904l-3.17 2.717V2.25a.754.754 0 01.751-.75h13.5a.754.754 0 01.75.75v9z" fill="#fff"/><path d="M12.748 4.412H5.25a.751.751 0 100 1.499h7.498a.751.751 0 100-1.5zm0 3.002H5.25a.751.751 0 100 1.499h7.498a.751.751 0 100-1.5z" fill="#fff"/><circle cx="14" cy="12" r="5" fill="#fff"/><path d="M17 13.492v.903a.602.602 0 01-.658.603 5.977 5.977 0 01-2.603-.925 5.877 5.877 0 01-1.81-1.806 5.953 5.953 0 01-.927-2.61.6.6 0 01.6-.657h.906a.604.604 0 01.603.518c.038.289.11.573.211.846a.602.602 0 01-.135.635l-.383.383a4.822 4.822 0 001.81 1.806l.383-.382a.604.604 0 01.636-.136c.274.102.558.173.848.211a.604.604 0 01.519.611z" fill="#04254E"/></svg>