<svg width="34" height="34" fill="none" xmlns="http://www.w3.org/2000/svg"><path d="M29.042 11.84a13.183 13.183 0 00-11.934-7.637c-6.214 0-11.43 4.338-12.79 10.143l-.365-.601a1 1 0 10-1.708 1.04l1.87 3.075c.005.006.01.01.014.017.03.048.066.093.105.135.009.01.016.021.026.031a.99.99 0 00.162.133c.016.01.033.017.049.026.045.026.09.05.14.069.023.009.047.015.07.022a.998.998 0 00.135.032c.012.002.023.007.035.009a1.09 1.09 0 00.317-.014c.04-.008.076-.022.114-.034.024-.008.049-.013.073-.023a.86.86 0 00.12-.064c.017-.01.035-.017.051-.028a.96.96 0 00.153-.125l2.557-2.557a1 1 0 10-1.414-1.414l-.504.504c1.23-4.81 5.602-8.376 10.79-8.376 4.331 0 8.303 2.541 10.118 6.475a1 1 0 001.816-.837zm2.911 8.057L30.08 16.82l-.011-.016a1.002 1.002 0 00-.108-.139c-.009-.009-.015-.019-.023-.027a.994.994 0 00-.163-.133c-.015-.01-.032-.017-.048-.026a.983.983 0 00-.14-.07c-.024-.009-.047-.014-.072-.021a.999.999 0 00-.134-.032c-.012-.002-.023-.008-.036-.009-.017-.002-.034.001-.051 0-.023-.002-.045-.007-.068-.007-.02 0-.039.005-.059.006a.946.946 0 00-.216.037c-.027.008-.053.015-.079.024a.998.998 0 00-.129.062c-.02.011-.04.02-.058.032a.997.997 0 00-.167.133l-2.557 2.557a1 1 0 101.414 1.414l.504-.504c-1.231 4.81-5.602 8.376-10.79 8.376-4.487 0-8.515-2.67-10.263-6.802a.999.999 0 10-1.842.78 13.12 13.12 0 0012.104 8.022c6.214 0 11.43-4.337 12.79-10.143l.365.601a.999.999 0 001.374.335 1 1 0 00.335-1.374z" fill="#fff" stroke="#fff" stroke-width=".5"/><path d="M18.101 16.641l-1.343-.492a1.347 1.347 0 00-.062-.02 1.728 1.728 0 01-1.143-1.058 1.734 1.734 0 01.045-1.336c.193-.424.54-.748.977-.912.436-.164.91-.148 1.335.046.424.193.749.54.912.976a1 1 0 001.873-.703 3.743 3.743 0 00-2.595-2.314v-.647a1 1 0 10-2 0v.697c-.076.023-.152.044-.228.072a3.721 3.721 0 00-2.095 1.958 3.722 3.722 0 00-.097 2.865 3.71 3.71 0 002.418 2.265l1.343.492.063.02a1.73 1.73 0 011.143 1.059c.163.436.147.91-.046 1.335-.193.425-.54.748-.976.912a1.74 1.74 0 01-1.336-.045 1.734 1.734 0 01-.912-.977 1 1 0 00-1.873.702 3.72 3.72 0 002.596 2.315v.648a1 1 0 102 0v-.697c.076-.023.152-.045.227-.073a3.72 3.72 0 002.095-1.957 3.72 3.72 0 00.098-2.865 3.711 3.711 0 00-2.42-2.267z" fill="#fff" stroke="#fff" stroke-width=".5"/></svg>