<svg width="21" height="20" fill="none" xmlns="http://www.w3.org/2000/svg"><path d="M10.326 12.77a2.77 2.77 0 100-5.539 2.77 2.77 0 000 5.538z" stroke="#fff" stroke-width="2" stroke-miterlimit="10" stroke-linecap="round" stroke-linejoin="round"/><path d="M18.466 6.1l-.692-1.2a1.384 1.384 0 00-1.892-.506l-.364.21c-1.384.8-3.115-.2-3.115-1.798v-.421c0-.765-.62-1.385-1.385-1.385H9.634c-.765 0-1.385.62-1.385 1.385v.42c0 1.6-1.73 2.599-3.115 1.8l-.365-.211a1.384 1.384 0 00-1.891.506l-.692 1.2a1.384 1.384 0 00.506 1.89l.365.211c1.384.8 1.384 2.798 0 3.598l-.365.21a1.384 1.384 0 00-.506 1.891l.692 1.2a1.384 1.384 0 001.891.506l.365-.21c1.384-.8 3.115.2 3.115 1.799v.42c0 .765.62 1.385 1.385 1.385h1.384c.765 0 1.385-.62 1.385-1.385v-.42c0-1.6 1.73-2.599 3.115-1.8l.364.211c.663.383 1.51.156 1.892-.506l.692-1.2a1.384 1.384 0 00-.507-1.89l-.364-.211c-1.384-.8-1.384-2.798 0-3.598l.364-.21c.663-.382.89-1.229.507-1.891z" stroke="#fff" stroke-width="2" stroke-miterlimit="10" stroke-linecap="round" stroke-linejoin="round"/></svg>