<svg width="34" height="34" fill="none" xmlns="http://www.w3.org/2000/svg"><path d="M26.533 32.406H8.143a2.183 2.183 0 01-2.18-2.18V8.406c0-1.202.978-2.18 2.18-2.18h4.155a.994.994 0 010 1.988H8.143a.192.192 0 00-.191.192v21.82c0 .105.086.19.191.19h18.39a.192.192 0 00.192-.19V8.405a.192.192 0 00-.192-.191h-4.154a.994.994 0 110-1.99h4.154c1.202 0 2.18.979 2.18 2.181v21.82c0 1.202-.978 2.18-2.18 2.18z" fill="#fff"/><path d="M19.835 5.148a2.511 2.511 0 00-4.994 0h-1.463c-.972 0-1.759.787-1.759 1.758v1.822h11.438V6.906c0-.971-.787-1.758-1.758-1.758h-1.464z" fill="#fff"/><path d="M23.057 9.225H11.62a.497.497 0 01-.497-.497V6.906a2.259 2.259 0 012.256-2.256h1.05a3.001 3.001 0 012.91-2.244 3 3 0 012.91 2.245h1.05a2.258 2.258 0 012.256 2.256v1.82a.497.497 0 01-.497.498zm-10.94-.994H22.56V6.907c0-.696-.566-1.262-1.261-1.262h-1.464a.497.497 0 01-.494-.445 2.009 2.009 0 00-2.003-1.8 2.008 2.008 0 00-2.002 1.8.497.497 0 01-.494.445h-1.464c-.696 0-1.262.566-1.262 1.262V8.23zm-.541 7.851a.994.994 0 01-.84-.46L9.71 14.009a.995.995 0 011.678-1.068l.328.515 1.499-1.648a.995.995 0 011.471 1.338l-2.375 2.61a.992.992 0 01-.735.326zm0 6.325a.996.996 0 01-.84-.46L9.71 20.334a.995.995 0 011.678-1.068l.328.515 1.5-1.648a.994.994 0 111.47 1.338l-2.374 2.61a.995.995 0 01-.736.326zm0 6.325c-.029 0-.057-.002-.085-.004a.995.995 0 01-.755-.457L9.71 26.658a.995.995 0 011.678-1.068l.328.515 1.499-1.648a.995.995 0 011.471 1.338l-2.375 2.611a.993.993 0 01-.735.326zm12.551-13.835h-6.68a.994.994 0 110-1.989h6.68a.994.994 0 110 1.989zm0 6.324h-6.68a.994.994 0 110-1.989h6.68a.994.994 0 110 1.99zm0 6.324h-6.68a.994.994 0 110-1.988h6.68a.994.994 0 110 1.988z" fill="#fff"/></svg>