<svg width="34" height="34" fill="none" xmlns="http://www.w3.org/2000/svg"><path d="M32.096 7.52a.987.987 0 00-.74-.275c-2.102.104-4.38.452-7.166 1.095a.995.995 0 00-.77.895c-1.937-.552-4.267-.839-6.4-.76-.982.006-2.062.45-3.056 1.114h-2.607a.999.999 0 00-.734-1.249c-2.787-.643-5.064-.99-7.167-1.095a1 1 0 00-1.05.999v10.927a1 1 0 001 1h3.939a1 1 0 00.589-.192c3.144 3.602 6.319 6.736 8.996 6.736a3.13 3.13 0 001.294-.274c.374.258.816.398 1.282.401h.014a2.272 2.272 0 001.965-1.118 2.28 2.28 0 002.846-1.597 2.21 2.21 0 001.392-.62 2.29 2.29 0 00.23-2.988l.91-.553c.17.13.38.205.605.205h3.938a1 1 0 001-1V8.244a1 1 0 00-.31-.725zM17.04 10.474h.039c2.384-.093 5.119.34 6.984 1.085l2.025 6.536-1.448.882c-1.976-2.219-4.153-4.16-6.496-5.775a1 1 0 00-1.134 0c-.286.196-.644.264-1.12.218a.997.997 0 00-.827.31c-1.435 1.527-1.953 1.238-2.544.775-.02-.104.017-.528.507-1.253.997-1.48 2.873-2.778 4.014-2.778zM4.406 18.17V9.315c1.422.125 2.959.367 4.716.74l-2.514 8.116H4.406zm17.922 5.562a.285.285 0 01-.202.081.277.277 0 01-.205-.084l-.773-.782-3.485-3.527a1 1 0 10-1.423 1.406l3.484 3.527a.292.292 0 01-.002.407.286.286 0 01-.202.081c-.043.01-.132-.01-.205-.084l-4.257-4.31a1 1 0 00-1.423 1.406l2.732 2.766c-2.232-.566-5.586-4.379-7.583-6.715l1.956-6.316h1.034c-.426.53-.767 1.077-.982 1.598-.619 1.502-.068 2.365.316 2.746a.988.988 0 00.083.074c1.141.904 2.73 1.632 5.002-.572.47-.004.906-.085 1.304-.241 2.467 1.77 4.739 3.924 6.758 6.411.02.025.042.05.065.072a.292.292 0 01-.003.407c-.076.076-.345.067-.485-.076 0 0-.002 0-.003-.002-.025-.028-.05-.058-.076-.085l-3.484-3.528a1 1 0 10-1.423 1.406l3.484 3.527a.291.291 0 01-.002.407zm8.078-5.562h-2.201l-2.514-8.115c1.757-.374 3.294-.616 4.716-.74v8.855z" fill="#fff"/></svg>